<svg id="Livello_1" data-name="Livello 1" xmlns="http://www.w3.org/2000/svg" viewBox="0 0 425.2 253.6"><defs><style>.cls-1{fill:#fec00f;}.cls-2{fill:none;}</style></defs><path d="M131,69.26l-15.89,58.08h-9.24L94.64,85.15l-11.4,42.19H74L58.11,69.26h9.15l11.32,42.18L90,69.26h9.07l11.48,42.18,11.32-42.18Z" transform="translate(0 0)"/><path d="M135.24,69.42l9.15-.75V82.9l-.17,5.33h.34a31.74,31.74,0,0,1,11.81-2.33c7.41,0,12.4,3.33,12.4,16.06v25.38h-9.15V102.71c0-7.66-3.75-8.66-8-8.66a25.59,25.59,0,0,0-7.24,1.25v32h-9.15Z" transform="translate(0 0)"/><path d="M181.33,70c4.75,0,5.5,2.75,5.5,5.83s-1,5.91-5.5,5.91-5.41-2.83-5.41-5.91S176.76,70,181.33,70Zm-4.57,16.48h9.15v40.86h-9.15Z" transform="translate(0 0)"/><path d="M193.65,86.48h6.24l1.25,3.33h.58A17.09,17.09,0,0,1,213,85.9a15.9,15.9,0,0,1,1.91.08v9a34.83,34.83,0,0,0-5.15-.5,15.91,15.91,0,0,0-6.91,1.66v31.21h-9.15Z" transform="translate(0 0)"/><path d="M218.77,127.34V69.42l9.16-.75v58.67Z" transform="translate(0 0)"/><path d="M293,85.9c13,0,18,7.65,18,21.22,0,12.73-4.66,21-18.14,21s-18.23-8.32-18.23-21C274.6,93.55,280,85.9,293,85.9Zm8.66,21.22c0-7.74-1.25-14.07-8.57-14.07s-9.24,6.08-9.24,14.07c0,7.4,1.5,13.81,8.82,13.81S301.65,114.86,301.65,107.12Z" transform="translate(0 0)"/><path d="M334,85.9c13,0,18,7.65,18,21.22,0,12.73-4.66,21-18.14,21s-18.22-8.32-18.22-21C315.65,93.55,321.05,85.9,334,85.9Zm8.65,21.22c0-7.74-1.25-14.07-8.57-14.07s-9.24,6.08-9.24,14.07c0,7.4,1.5,13.81,8.82,13.81S342.69,114.86,342.69,107.12Z" transform="translate(0 0)"/><path d="M357.94,127.34V69.42l9.15-.75v58.67Z" transform="translate(0 0)"/><path d="M235.42,86.48h6.9l.75,3c2.75-1.49,7.82-3.57,12.4-3.57,8.32,0,14.39,6.07,14.39,20.63,0,14.32-6.4,21.39-17.05,21.39a51,51,0,0,1-8.24-.83v18.72l-9.15,1Zm9.15,33.29c2.58.08,4,.16,6.66.16,5.65,0,9.4-3,9.4-14.9,0-8.15-3.33-10.31-9.32-10.31a20.85,20.85,0,0,0-6.74,1.16Z" transform="translate(0 0)"/><path class="cls-1" d="M280.73,61.38c-6.85-7.94-28.56-1-52.8,15.81v4.23c21.34-15.17,40.16-22.18,45.55-15.93,6.73,7.8-10,33.3-37.39,56.93S181,158.86,174.31,151.07c-3.49-4-.64-12.88,6.73-23.73h-4.29c-9.12,13.61-12.55,25-7.86,30.48,8.55,9.9,40.51-3.64,71.38-30.29S289.27,71.28,280.73,61.38Z" transform="translate(0 0)"/><path d="M66.88,191.36a9.27,9.27,0,0,0,4.05,1c1.68,0,2.57-.7,2.57-1.75s-.77-1.59-2.71-2.26c-2.69-1-4.47-2.45-4.47-4.8,0-2.76,2.33-4.85,6.12-4.85a9.4,9.4,0,0,1,4.13.82l-.81,2.93a7.47,7.47,0,0,0-3.36-.77c-1.59,0-2.36.74-2.36,1.56,0,1,.89,1.49,3,2.28,2.86,1.05,4.18,2.54,4.18,4.82,0,2.71-2.06,5-6.5,5a10.62,10.62,0,0,1-4.59-1Z" transform="translate(0 0)"/><path d="M90.78,188.29h-6v3.84h6.65v3H81.18V179h10v3H84.83v3.36h6Z" transform="translate(0 0)"/><path d="M95.41,195.13V179h4.27l3.36,5.93a50.22,50.22,0,0,1,2.64,5.54h0c-.21-2.13-.29-4.32-.29-6.76V179h3.36v16.18H105l-3.45-6.24a56,56,0,0,1-2.81-5.71h-.1c.12,2.16.17,4.44.17,7.08v4.87Z" transform="translate(0 0)"/><path d="M113.53,191.36a9.32,9.32,0,0,0,4.06,1c1.68,0,2.57-.7,2.57-1.75s-.77-1.59-2.72-2.26c-2.68-1-4.46-2.45-4.46-4.8,0-2.76,2.33-4.85,6.12-4.85a9.4,9.4,0,0,1,4.13.82l-.82,2.93a7.44,7.44,0,0,0-3.36-.77c-1.58,0-2.35.74-2.35,1.56,0,1,.89,1.49,3,2.28,2.86,1.05,4.18,2.54,4.18,4.82,0,2.71-2.07,5-6.51,5a10.57,10.57,0,0,1-4.58-1Z" transform="translate(0 0)"/><path d="M131.48,179v16.18h-3.65V179Z" transform="translate(0 0)"/><path d="M136.09,195.13V179h4.27l3.36,5.93a50.22,50.22,0,0,1,2.64,5.54h0c-.21-2.13-.29-4.32-.29-6.76V179h3.36v16.18h-3.84l-3.45-6.24a56,56,0,0,1-2.81-5.71h-.1c.12,2.16.17,4.44.17,7.08v4.87Z" transform="translate(0 0)"/><path d="M167.6,194.38a17.81,17.81,0,0,1-5.4.92c-2.95,0-5.09-.75-6.57-2.16a8.1,8.1,0,0,1-2.28-5.91c0-5.37,3.93-8.45,9.24-8.45a11.71,11.71,0,0,1,4.49.77l-.77,2.95a8.63,8.63,0,0,0-3.75-.69c-3.05,0-5.37,1.7-5.37,5.23,0,3.36,2.11,5.3,5.11,5.3a5.55,5.55,0,0,0,1.77-.21v-3.41h-2.49v-2.86h6Z" transform="translate(0 0)"/><path d="M179.91,195.13,176.07,179H180l1.22,6.65c.36,1.94.7,4,1,5.66h.05c.26-1.75.65-3.69,1.05-5.71l1.37-6.6h3.89l1.3,6.82c.36,1.89.62,3.62.86,5.42h.05c.24-1.8.6-3.69.94-5.64L193,179h3.72l-4.18,16.18h-4l-1.37-7c-.31-1.63-.57-3.15-.77-5h0c-.29,1.82-.56,3.36-.94,5l-1.54,7Z" transform="translate(0 0)"/><path d="M203.72,179v6.22h6V179h3.65v16.18h-3.65v-6.77h-6v6.77h-3.65V179Z" transform="translate(0 0)"/><path d="M221.79,191l-1.15,4.15h-3.77L221.79,179h4.8l5,16.18h-4L226.43,191Zm4.11-2.74-1-3.43c-.29-1-.58-2.16-.82-3.12h0c-.24,1-.48,2.18-.75,3.12l-1,3.43Z" transform="translate(0 0)"/><path d="M236.36,182H232V179h12.44V182H240v13.11h-3.65Z" transform="translate(0 0)"/><path d="M267.78,188.94c-.07-1.95-.15-4.3-.15-6.65h0c-.53,2.06-1.2,4.37-1.83,6.26l-2,6.31h-2.85l-1.73-6.24c-.53-1.92-1.06-4.22-1.46-6.33h-.05c-.07,2.18-.17,4.68-.27,6.69l-.31,6.15h-3.38l1-16.18h4.87l1.59,5.4c.52,1.87,1,3.89,1.36,5.79h.1c.43-1.88,1-4,1.54-5.81l1.7-5.38h4.8l.87,16.18H268Z" transform="translate(0 0)"/><path d="M279.54,191l-1.15,4.15h-3.77L279.54,179h4.8l5,16.18h-4L284.17,191Zm4.1-2.74-1-3.43c-.28-1-.57-2.16-.81-3.12h-.05c-.24,1-.48,2.18-.74,3.12l-1,3.43Z" transform="translate(0 0)"/><path d="M294.11,182h-4.37V179h12.43V182h-4.42v13.11h-3.64Z" transform="translate(0 0)"/><path d="M309.23,182h-4.37V179h12.43V182h-4.42v13.11h-3.64Z" transform="translate(0 0)"/><path d="M330.3,188.29h-5.95v3.84H331v3H320.7V179h10v3h-6.31v3.36h5.95Z" transform="translate(0 0)"/><path d="M334.93,179.17a32,32,0,0,1,4.87-.34c2.4,0,4.08.36,5.23,1.27a4.1,4.1,0,0,1,1.52,3.41,4.29,4.29,0,0,1-2.86,4v.07a4.06,4.06,0,0,1,2.16,3,45.9,45.9,0,0,0,1.3,4.59H343.4a21.35,21.35,0,0,1-1.1-3.77c-.46-2-1.15-2.57-2.67-2.59h-1.08v6.36h-3.62Zm3.62,7H340c1.83,0,2.91-.91,2.91-2.33s-1-2.23-2.69-2.23a7.47,7.47,0,0,0-1.66.12Z" transform="translate(0 0)"/><path d="M350.72,191.36a9.32,9.32,0,0,0,4.06,1c1.68,0,2.57-.7,2.57-1.75s-.77-1.59-2.72-2.26c-2.69-1-4.46-2.45-4.46-4.8,0-2.76,2.33-4.85,6.12-4.85a9.4,9.4,0,0,1,4.13.82l-.82,2.93a7.44,7.44,0,0,0-3.36-.77c-1.58,0-2.35.74-2.35,1.56,0,1,.89,1.49,3,2.28,2.86,1.05,4.18,2.54,4.18,4.82,0,2.71-2.07,5-6.51,5a10.57,10.57,0,0,1-4.58-1Z" transform="translate(0 0)"/><rect class="cls-2" width="425.2" height="253.6"/></svg>